<svg width="10" height="16" viewBox="0 0 10 16" fill="none" xmlns="http://www.w3.org/2000/svg">
<path d="M0 9.775H1.32875C1.75 13.4038 4.14625 15.5 7.925 15.5C8.7025 15.5 9.38375 15.415 9.99875 15.2687V13.6438C9.39375 13.7925 8.6925 13.8563 7.925 13.8563C5.3 13.8563 3.60625 12.3587 3.20625 9.77625H8.2275V8.61625H3.12125V7.44625C3.12125 7.30875 3.12125 7.1725 3.13125 7.035H8.22875V5.87625H3.2725C3.7575 3.50375 5.42125 2.145 7.92625 2.145C8.69375 2.145 9.395 2.2075 10 2.36625V0.7425C9.32177 0.574396 8.62497 0.492914 7.92625 0.5C4.26625 0.5 1.90125 2.46125 1.37125 5.875H0V7.035H1.2625V8.61625H0V9.77625V9.775Z" fill="black"/>
</svg>
