<svg width="20" height="20" viewBox="0 0 20 20" fill="none" xmlns="http://www.w3.org/2000/svg">
<path d="M9.99998 1.66667C6.66665 1.66667 3.33331 2.08333 3.33331 5V12.9167C3.33331 13.7083 3.64998 14.425 4.16665 14.95V16.25C4.16665 16.9417 4.72498 17.5 5.41665 17.5C6.10831 17.5 6.66665 16.9417 6.66665 16.25V15.8333H13.3333V16.25C13.3333 16.9333 13.8916 17.5 14.5833 17.5C15.2666 17.5 15.8333 16.9417 15.8333 16.25V14.95C16.35 14.425 16.6666 13.7083 16.6666 12.9167V5C16.6666 2.08333 13.6833 1.66667 9.99998 1.66667ZM7.08331 13.3333C6.39165 13.3333 5.83331 12.775 5.83331 12.0833C5.83331 11.3917 6.39165 10.8333 7.08331 10.8333C7.77498 10.8333 8.33331 11.3917 8.33331 12.0833C8.33331 12.775 7.77498 13.3333 7.08331 13.3333ZM12.9166 13.3333C12.225 13.3333 11.6666 12.775 11.6666 12.0833C11.6666 11.3917 12.225 10.8333 12.9166 10.8333C13.6083 10.8333 14.1666 11.3917 14.1666 12.0833C14.1666 12.775 13.6083 13.3333 12.9166 13.3333ZM15 8.33333H4.99998V5.83333H15V8.33333Z" fill="black"/>
</svg>
