<?xml version="1.0" encoding="UTF-8" standalone="no"?>
<svg
   width="20"
   height="20"
   viewBox="0 0 20 20"
   fill="none"
   version="1.1"
   id="svg241"
   sodipodi:docname="person.svg"
   inkscape:version="1.2 (dc2aedaf03, 2022-05-15)"
   xmlns:inkscape="http://www.inkscape.org/namespaces/inkscape"
   xmlns:sodipodi="http://sodipodi.sourceforge.net/DTD/sodipodi-0.dtd"
   xmlns="http://www.w3.org/2000/svg"
   xmlns:svg="http://www.w3.org/2000/svg">
  <defs
     id="defs245" />
  <sodipodi:namedview
     id="namedview243"
     pagecolor="#ffffff"
     bordercolor="#666666"
     borderopacity="1.0"
     inkscape:showpageshadow="2"
     inkscape:pageopacity="0.0"
     inkscape:pagecheckerboard="0"
     inkscape:deskcolor="#d1d1d1"
     showgrid="false"
     inkscape:zoom="50.1"
     inkscape:cx="10"
     inkscape:cy="10"
     inkscape:window-width="2560"
     inkscape:window-height="1369"
     inkscape:window-x="1912"
     inkscape:window-y="-8"
     inkscape:window-maximized="1"
     inkscape:current-layer="svg241" />
  <path
     d="m 2.2030938,19.216567 c 0,0 -1.55938123,0 -1.55938123,-1.536095 0,-1.536094 1.55938123,-6.144378 9.35628743,-6.144378 7.796906,0 9.356287,4.608284 9.356287,6.144378 0,1.536095 -1.559381,1.536095 -1.559381,1.536095 z M 10,10 c 1.240768,0 2.430639,-0.4855165 3.308009,-1.3497355 0.877245,-0.864219 1.370135,-2.0363574 1.370135,-3.2585479 0,-1.2221905 -0.49289,-2.3943289 -1.370135,-3.258548 C 12.430639,1.2689496 11.240768,0.78343313 10,0.78343313 c -1.2407186,0 -2.4306262,0.48551647 -3.3079466,1.34973547 -0.8773204,0.8642191 -1.3701971,2.0363575 -1.3701971,3.258548 0,1.2221905 0.4928767,2.3943289 1.3701971,3.2585479 C 7.5693738,9.5144835 8.7592814,10 10,10 Z"
     fill="#000000"
     id="path239"
     style="stroke-width:1.23816" />
</svg>
