<?xml version="1.0" encoding="UTF-8" standalone="no"?>
<svg
   width="20"
   height="20"
   viewBox="0 0 20 20"
   fill="none"
   version="1.1"
   id="svg167"
   sodipodi:docname="salida.svg"
   inkscape:version="1.2 (dc2aedaf03, 2022-05-15)"
   xmlns:inkscape="http://www.inkscape.org/namespaces/inkscape"
   xmlns:sodipodi="http://sodipodi.sourceforge.net/DTD/sodipodi-0.dtd"
   xmlns="http://www.w3.org/2000/svg"
   xmlns:svg="http://www.w3.org/2000/svg">
  <defs
     id="defs171" />
  <sodipodi:namedview
     id="namedview169"
     pagecolor="#ffffff"
     bordercolor="#666666"
     borderopacity="1.0"
     inkscape:showpageshadow="2"
     inkscape:pageopacity="0.0"
     inkscape:pagecheckerboard="0"
     inkscape:deskcolor="#d1d1d1"
     showgrid="false"
     inkscape:zoom="50.1"
     inkscape:cx="10"
     inkscape:cy="10"
     inkscape:window-width="2560"
     inkscape:window-height="1369"
     inkscape:window-x="1912"
     inkscape:window-y="-8"
     inkscape:window-maximized="1"
     inkscape:current-layer="svg167" />
  <path
     d="m 10.108186,0.26946439 c -4.0560947,0 -8.1122013,0.50700434 -8.1122013,4.05609451 v 9.6332741 c 0,0.963243 0.3853334,1.835345 1.0140328,2.47418 v 1.581877 c 0,0.841682 0.6793924,1.521038 1.5210368,1.521038 0.8416324,0 1.521037,-0.679356 1.521037,-1.521038 v -0.507052 h 8.1121767 v 0.507052 c 0,0.83146 0.679356,1.521038 1.521038,1.521038 0.831459,0 1.521036,-0.679356 1.521036,-1.521038 v -1.581877 c 0.628736,-0.638835 1.013984,-1.510937 1.013984,-2.47418 V 4.3255589 c 0,-3.54909017 -3.630167,-4.05609451 -8.11214,-4.05609451 z M 6.5590956,14.465765 c -0.8416324,0 -1.5210371,-0.679356 -1.5210371,-1.521038 0,-0.841558 0.6794047,-1.521036 1.5210371,-1.521036 0.8416444,0 1.5210368,0.679478 1.5210368,1.521036 0,0.841682 -0.6793924,1.521038 -1.5210368,1.521038 z m 7.0981204,0 c -0.84156,0 -1.521037,-0.679356 -1.521037,-1.521038 0,-0.841558 0.679477,-1.521036 1.521037,-1.521036 0.841679,0 1.521036,0.679478 1.521036,1.521036 0,0.841682 -0.679357,1.521038 -1.521036,1.521038 z M 16.192358,8.3816533 H 4.024038 V 5.3395794 h 12.16832 z"
     fill="#000000"
     id="path165"
     style="stroke-width:1.21683" />
</svg>
